<?xml version="1.0" standalone="no"?>
<!DOCTYPE svg PUBLIC "-//W3C//DTD SVG 20010904//EN"
 "http://www.w3.org/TR/2001/REC-SVG-20010904/DTD/svg10.dtd">
<svg version="1.0" xmlns="http://www.w3.org/2000/svg"
 width="16.000000pt" height="16.000000pt" viewBox="0 0 16.000000 16.000000"
 preserveAspectRatio="xMidYMid meet">
<metadata>
Created by potrace 1.11, written by Peter Selinger 2001-2013
</metadata>
<g transform="translate(0.000000,16.000000) scale(0.008333,-0.008333)"
fill="#000000" stroke="none">
<path d="M232 1660 c-18 -11 -41 -34 -52 -52 -19 -32 -20 -52 -20 -648 0 -596
1 -616 20 -648 11 -18 34 -41 52 -52 32 -19 52 -20 648 -20 596 0 616 1 648
20 59 36 72 71 72 193 l0 107 80 0 80 0 0 80 0 80 -80 0 -80 0 0 80 0 80 80 0
80 0 0 80 0 80 -80 0 -80 0 0 80 0 80 80 0 80 0 0 80 0 80 -80 0 -80 0 0 108
c0 121 -13 156 -72 192 -32 19 -52 20 -648 20 -596 0 -616 -1 -648 -20z m1208
-700 l0 -560 -560 0 -560 0 0 560 0 560 560 0 560 0 0 -560z"/>
<path d="M480 1160 l0 -200 200 0 200 0 0 200 0 200 -200 0 -200 0 0 -200z"/>
<path d="M960 1240 l0 -120 160 0 160 0 0 120 0 120 -160 0 -160 0 0 -120z"/>
<path d="M960 800 l0 -240 160 0 160 0 0 240 0 240 -160 0 -160 0 0 -240z"/>
<path d="M480 720 l0 -160 200 0 200 0 0 160 0 160 -200 0 -200 0 0 -160z"/>
</g>
</svg>
